REM MD5 0eafd9e791ab49e6d9c3a5e464fa83bc
FILE "Two Product Psygnosis Demo (Europe).bin" BINARY
  TRACK 01 MODE2/2352
    INDEX 01 00:00:00
  TRACK 02 AUDIO
    INDEX 00 35:25:51
    INDEX 01 35:27:51
  TRACK 03 AUDIO
    INDEX 00 38:14:65
    INDEX 01 38:16:65
REM LEADOUT 41:27:07
